<svg class="icon" viewBox="0 0 1114 1024" xmlns="http://www.w3.org/2000/svg" width="34.813" height="32"><defs><style/></defs><path d="M1090.103 367.775c-1.202-66.104-30.047-94.949-97.352-94.949a106454.98 106454.98 0 00-876.169 0c-67.305 0-96.15 28.845-97.352 94.949-3.606 192.3-2.404 383.399 0 575.7 0 33.652 9.615 63.699 43.268 79.323h985.54c33.652-15.624 43.267-44.47 43.267-79.324 1.202-191.098 2.404-383.399-1.202-575.7zM638.197 507.192h-167.06c-26.442 0-42.067-13.22-44.47-37.258-2.404-25.24 13.22-44.47 38.46-45.671a2224.476 2224.476 0 01179.08 0c24.037 1.202 39.662 19.23 38.46 44.47-1.202 25.239-18.029 38.46-44.47 38.46zM2.404 229.56C1.202 161.052 1.202 92.545 0 24.038 8.413-1.202 28.845 1.202 49.277 1.202c335.324 0 671.85 1.202 1007.174-1.202 43.267 0 57.69 16.826 57.69 56.488v138.216c0 38.46-16.826 58.892-58.892 58.892H54.085c-21.634 0-39.662-4.807-51.681-24.037z"/></svg>