<?xml version="1.0" standalone="no"?><!DOCTYPE svg PUBLIC "-//W3C//DTD SVG 1.1//EN" "http://www.w3.org/Graphics/SVG/1.1/DTD/svg11.dtd"><svg t="1588922509127" class="icon" viewBox="0 0 1114 1024" version="1.1" xmlns="http://www.w3.org/2000/svg" p-id="3929" xmlns:xlink="http://www.w3.org/1999/xlink" width="34.8125" height="32"><defs><style type="text/css"></style></defs><path d="M1090.103286 367.774648c-1.201878-66.103286-30.046948-94.948357-97.352112-94.948357-292.056338-1.201878-584.112676-1.201878-876.169014 0-67.305164 0-96.150235 28.84507-97.352113 94.948357-3.605634 192.300469-2.403756 383.399061 0 575.69953 0 33.652582 9.615023 63.699531 43.267606 79.323944h985.539906c33.652582-15.624413 43.267606-44.469484 43.267605-79.323944 1.201878-191.098592 2.403756-383.399061-1.201878-575.69953zM638.197183 507.192488H471.13615c-26.441315 0-42.065728-13.220657-44.469483-37.258216-2.403756-25.239437 13.220657-44.469484 38.460094-45.671361 60.093897-2.403756 118.985915-2.403756 179.079812 0 24.037559 1.201878 39.661972 19.230047 38.460094 44.469483-1.201878 25.239437-18.028169 38.460094-44.469484 38.460094zM2.403756 229.558685C1.201878 161.051643 1.201878 92.544601 0 24.037559 8.413146-1.201878 28.84507 1.201878 49.276995 1.201878 384.600939 1.201878 721.126761 2.403756 1056.450704 0c43.267606 0 57.690141 16.826291 57.690141 56.488263v138.215962c0 38.460094-16.826291 58.892019-58.892019 58.892019H54.084507c-21.633803 0-39.661972-4.807512-51.680751-24.037559z" fill="#707070" p-id="3930"></path></svg>