<svg class="icon" viewBox="0 0 1024 1024" xmlns="http://www.w3.org/2000/svg" width="32" height="32"><defs><style/></defs><path d="M888.2 171.5H744.9V64h-71.7v107.4H350.7V64H279v107.4H135.8c-19.8 0-35.9 16.1-35.9 35.9V279h824.2v-71.7c0-19.7-16-35.8-35.9-35.8zM99.9 924.1c0 19.8 16.1 35.9 35.9 35.9h752.5c19.8 0 35.9-16.1 35.9-35.9V314.9H99.9v609.2zm609.2-537.5h143.3v143.3H709.1V386.6zm0 179.1h143.3V709H709.1V565.7zm0 179.2h143.3v143.3H709.1V744.9zM529.9 386.6h143.3v143.3H529.9V386.6zm0 179.1h143.3V709H529.9V565.7zm0 179.2h143.3v143.3H529.9V744.9zM350.7 386.6H494v143.3H350.7V386.6zm0 179.1H494V709H350.7V565.7zm0 179.2H494v143.3H350.7V744.9zM171.5 386.6h143.3v143.3H171.5V386.6zm0 179.1h143.3V709H171.5V565.7zm0 179.2h143.3v143.3H171.5V744.9z"/></svg>