<svg class="icon" viewBox="0 0 1024 1024" xmlns="http://www.w3.org/2000/svg" width="32" height="32"><defs><style/></defs><path d="M512.423 128.745c-9.815 0-17.588 2.934-23.2 8.956-5.722 5.88-10.138 13.073-13.15 21.26l-89.097 208.052-239.161 21.716c-5.61 1.082-10.786 3.592-15.414 7.73-4.65 4.16-7.574 9.827-8.544 17.133-1.07 7.194.658 14.3 4.975 21.293 4.428 6.96 9.704 13.295 15.849 19.083l8.532 7.317 19.743 17.12c8.086 6.972 17.043 14.734 27.17 23.234l30.529 25.978c24.27 20.712 51.564 44.28 82.081 70.671l-26.3 108.684a2732.183 2732.183 0 00-10.463 41.112c-3.346 13.43-6.38 25.743-8.967 36.897-2.588 11.11-4.84 20.602-6.893 28.667l-3.882 15.18c-1.093 4.584-.535 9.157 1.494 13.53 2.064 4.372 5.288 8.188 9.727 11.232 4.316 3.18 9.269 5.03 14.656 5.901 1.204.18 2.387.235 3.58.235 4.16 0 8.254-1.027 12.28-2.956 2.588-1.115 7.662-3.703 15.114-7.764 7.551-4.126 16.385-9.368 26.735-15.592 10.262-6.223 21.817-12.872 34.432-20.178 12.615-7.205 25.442-14.51 38.28-21.717 29.993-17.02 63.22-36.439 99.905-58.145l202.03 117.942 11.233 4.239c4.84 1.852 8.61 2.733 11.209 2.733 7.775 0 14.667-1.763 20.936-5.02 6.134-3.38 8.52-10.24 6.893-20.622-.536-2.065-1.495-7.083-3.012-15.17l-5.844-28.988a1396.187 1396.187 0 01-7.317-38.091c-2.599-13.976-5.51-27.93-8.533-41.883-6.793-33.184-14.444-70.18-23.29-110.96l160.293-144.352c6.693-7.852 12.192-14.4 16.62-19.854 4.416-5.455 6.58-11.779 6.58-18.984 0-7.74-2.052-13.43-6.157-17.132-4.216-3.603-11.433-6.647-21.682-9.269l-239.251-22.475-86.643-208.064c-1.071-2.064-2.476-4.573-4.306-7.73-1.828-3.045-3.993-6.223-6.58-9.269-2.588-3.168-5.822-5.9-9.593-8.186-3.893-2.3-8.421-3.494-13.597-3.494"/></svg>