<?xml version="1.0" standalone="no"?><!DOCTYPE svg PUBLIC "-//W3C//DTD SVG 1.1//EN" "http://www.w3.org/Graphics/SVG/1.1/DTD/svg11.dtd"><svg t="1588059328451" class="icon" viewBox="0 0 1024 1024" version="1.1" xmlns="http://www.w3.org/2000/svg" p-id="1772" xmlns:xlink="http://www.w3.org/1999/xlink" width="32" height="32"><defs><style type="text/css"></style></defs><path d="M512.423137 128.745223c-9.815553 0-17.588587 2.933819-23.199375 8.955976-5.722328 5.878894-10.138918 13.072737-13.150508 21.259186l-89.097224 208.052476-239.160985 21.716604c-5.609765 1.081635-10.785647 3.591805-15.414061 7.730055-4.650927 4.15974-7.573489 9.826809-8.543583 17.132192-1.070378 7.193843 0.657986 14.299681 4.974291 21.292955 4.427846 6.959505 9.704013 13.295817 15.848966 19.083637l8.532327 7.316639 19.742646 17.120936c8.086166 6.970762 17.043165 14.733563 27.170826 23.233144l30.528294 25.977651c24.270776 20.712741 51.564399 44.280506 82.081437 70.671573l-26.301016 108.683305c-3.669576 13.942547-7.127328 27.594475-10.462283 41.11235-3.346211 13.429871-6.379291 25.743314-8.967232 36.897352-2.587941 11.110035-4.840238 20.602224-6.892991 28.6669l-3.8814 15.179724c-1.092891 4.584412-0.535189 9.157567 1.494027 13.530155 2.064009 4.371564 5.287423 8.187473 9.726525 11.231809 4.316306 3.179412 9.269108 5.030573 14.655791 5.901407 1.204431 0.179079 2.387373 0.234337 3.580548 0.234337 4.15974 0 8.253988-1.026376 12.279674-2.955308 2.587941-1.115404 7.662517-3.703345 15.114233-7.763824 7.550976-4.125971 16.385179-9.368368 26.734898-15.592117 10.261715-6.223748 21.816888-12.872169 34.432207-20.178575 12.615319-7.205099 25.441439-14.510482 38.279838-21.716604 29.993105-17.020652 63.219857-36.43891 99.905384-58.145281l202.029296 117.942179 11.232832 4.238534c4.840238 1.852184 8.610098 2.733251 11.209296 2.733251 7.77508 0 14.667048-1.763157 20.935822-5.02034 6.134721-3.378957 8.521071-10.239202 6.892991-20.621667-0.535189-2.065032-1.49505-7.083326-3.01159-15.169491l-5.844102-28.988218c-2.365884-11.478426-4.840238-24.137747-7.316639-38.09155-2.599198-13.975293-5.510504-27.929096-8.53335-41.882899-6.792707-33.183773-14.443967-70.180386-23.289426-110.959138l160.29273-144.352689c6.692423-7.851828 12.19167-14.399965 16.619516-19.854187 4.41659-5.454222 6.580882-11.778254 6.580882-18.983353 0-7.740288-2.052752-13.429871-6.157233-17.132192-4.216022-3.603061-11.4334-6.647397-21.682835-9.269108l-239.251036-22.474874-86.642313-208.063733c-1.071402-2.064009-2.476401-4.573155-4.306072-7.730055-1.828648-3.045359-3.992941-6.223748-6.580882-9.269108-2.586918-3.168156-5.821589-5.900384-9.592472-8.18645C522.12715 129.939421 517.59902 128.745223 512.423137 128.745223" p-id="1773" fill="#e6e6e6"></path></svg>