<svg width="36" height="36" xmlns="http://www.w3.org/2000/svg"><g><path d="M0 0h36v36H0z"/><path d="M27.869 26.854H8c0-1.005.472-2.743 3.519-4.466.639-.36 3.825-2.292 4.097-2.75.309-.52.395-1.162-.196-2.105-.047-.077-.985-1.525-1.275-2.503-.205-.692-.227-1.485-.227-2.317 0-2.877 1.804-4.713 4.03-4.713s4.031 1.836 4.031 4.713c0 .686-.013 1.343-.132 1.94-.207 1.037-1.071 2.353-1.259 2.678-.044.076-.08.137-.103.17-.406.606-.522 1.053-.484 1.414.043.414.313.701.666.94.368.247 3.345 2.295 3.71 2.533 2.495 1.629 3.492 3.218 3.492 4.466z"/></g></svg>