<svg class="icon" viewBox="0 0 1024 1024" xmlns="http://www.w3.org/2000/svg" width="32" height="32"><defs><style/></defs><path d="M308.445 65.081L274.52 78.096l-42.405 52.067h186.581l46.65-47.732 67.847 73.76H304.2c42.405 20.274 67.113 37.632 74.207 52.067 7.019 14.518 10.603 24.618 10.603 30.373 0 5.839-2.857 14.518-8.481 26.038-5.706 11.594-14.187 18.853-25.443 21.694-11.338 2.923-18.424-5.756-21.207-26.038a549.818 549.818 0 00-19.084-49.895c-7.093-15.855-19.084-33.957-36.046-54.238h-63.611c-19.811 17.358-42.405 40.555-67.848 69.425-28.284 31.884-60.82 62.257-97.519 91.127l-8.48-13.015c36.698-40.472 72.744-88.204 108.138-143.185C184.74 105.636 210.918 52.067 227.879 0l80.566 65.081zM209.67 433.908c0 312.409 1.387 498.99 4.245 559.72l-75.09 30.364c2.774-132.995 4.244-266.84 4.244-401.347 0-134.515-1.462-224.882-4.244-271.185l93.29 43.388-22.445 39.06zm9.72-177.91c64.998 34.708 102.432 60.077 112.374 75.932 9.869 15.938 14.84 29.704 14.84 41.224 0 8.68-2.857 18.853-8.48 30.373-5.707 11.594-14.188 20.273-25.444 26.038-11.33 5.838-18.423-1.42-21.198-21.694-5.706-17.359-14.187-37.55-25.443-60.746-11.33-23.114-29.68-47.731-55.13-73.76l8.48-17.367zm134.465 648.385c3.014-103.514 4.6-200.702 4.6-291.722 0-90.937-1.586-156.811-4.6-197.622l64.379 42.347h193.138l27.59-47.054 97.742 62.521-45.99 37.64c0 185.128 3.015 296.429 9.2 334.077l-93.142 31.579v-47.046H418.235v47.054l-64.38 28.226zm315.042-1.875c50.886 5.764 86.932 9.348 108.139 10.851 21.206 1.42 18.25.67 29.588-2.172 11.256-2.915 16.962-13.014 16.962-30.372V347.117H524.714c-22.669 0-49.499 4.343-80.574 13.014l-38.16-39.052h432.537l38.169-39.052 59.367 60.746-38.169 26.037v542.377c0 20.2-4.244 38.301-12.725 54.239-8.481 15.855-64.966 44.048-101.665 58.566-11.33-43.38-60.828-73.752-148.42-91.11l33.824-30.374zM418.235 485.612v141.154h188.538V485.612H418.235zm0 169.396v145.86h188.538v-145.86H418.235zM702.822 60.746l-38.16 17.358-38.169 52.067h241.241l47.12-47.731 67.848 73.76h-279.88c50.886 26.037 78.451 44.139 82.687 54.239 4.245 10.173 6.359 18.11 6.359 23.865 0 5.839-1.462 12.346-4.236 19.53-2.858 7.26-7.829 13.766-14.84 19.522-7.094 5.839-12.065 8.68-14.848 8.68-5.706 0-10.603-5.013-14.84-15.187-4.236-10.1-9.215-25.286-14.84-45.56-5.705-17.358-19.81-39.052-42.404-65.089h-72.092a1454.498 1454.498 0 01-135.704 130.17l-12.725-13.014c42.404-49.151 76.989-99.046 103.893-149.692 26.83-50.572 45.915-90.368 57.245-119.32l76.345 56.402z"/></svg>