<svg class="icon" viewBox="0 0 1024 1024" xmlns="http://www.w3.org/2000/svg" width="32" height="32"><defs><style/></defs><path d="M0 168v476.8c0 92 68 168 152 168h229.6l8 211.2 224.8-212h256.8c84.8 0 152.8-75.2 152.8-168V168c0-92.8-68-168-152-168H152C68.8 0 0 75.2 0 168zm658.4 264c0-44 32-79.2 72-79.2s72.8 35.2 72.8 80c0 44-32 79.2-72 79.2s-72-35.2-72-80zm-220.8 0c0-44 32-79.2 72-79.2s72 35.2 72 80c0 44-32 79.2-72 79.2s-72-35.2-72-80zm-216 0c0-44 32-79.2 72-79.2s72 35.2 72 80c0 44-32 79.2-72 79.2s-72-35.2-72-80z"/></svg>