<svg class="icon" viewBox="0 0 1024 1024" xmlns="http://www.w3.org/2000/svg" width="32" height="32"><defs><style/></defs><path d="M874.526 1019.963H147.741c-58.582 0-106.241-47.66-106.241-106.242v-802.98C41.5 52.16 89.16 4.5 147.741 4.5h726.785c58.582 0 106.241 47.66 106.241 106.241V913.72c.001 58.583-47.659 106.243-106.241 106.243zM147.741 68.5c-23.292 0-42.241 18.949-42.241 42.241V913.72c0 23.292 18.949 42.242 42.241 42.242h726.785c23.292 0 42.241-18.95 42.241-42.242V110.741c0-23.292-18.949-42.241-42.241-42.241H147.741z"/><path d="M557.5 260.5h249v64h-249v-64zM174.5 412.5h632v64h-632v-64zM174.5 565.5h632v64h-632v-64zM174.5 721.5h632v64h-632v-64z"/></svg>