<svg class="icon" viewBox="0 0 1024 1024" xmlns="http://www.w3.org/2000/svg" width="32" height="32"><defs><style/></defs><path d="M1024 619.52c0-143.36-138.24-256-307.2-256s-307.2 112.64-307.2 256 138.24 256 307.2 256c30.72 0 61.44-5.12 92.16-10.24l97.28 51.2-25.6-76.8c87.04-51.2 143.36-128 143.36-220.16zm-414.72-40.96c-30.72 0-51.2-20.48-51.2-51.2s20.48-51.2 51.2-51.2 51.2 20.48 51.2 51.2c0 25.6-25.6 51.2-51.2 51.2zm209.92 0c-30.72 0-51.2-20.48-51.2-51.2s20.48-51.2 51.2-51.2 51.2 20.48 51.2 51.2c0 25.6-25.6 51.2-51.2 51.2z"/><path d="M358.4 609.28c0-158.72 153.6-286.72 348.16-286.72h15.36C680.96 189.44 542.72 87.04 368.64 87.04 163.84 87.04 0 225.28 0 394.24c0 107.52 66.56 204.8 168.96 256l-30.72 92.16L256 686.08c35.84 10.24 71.68 15.36 112.64 15.36h10.24c-15.36-30.72-20.48-61.44-20.48-92.16zm138.24-414.72c35.84 0 66.56 30.72 66.56 66.56s-30.72 66.56-66.56 66.56c-35.84-5.12-66.56-35.84-66.56-71.68s30.72-61.44 66.56-61.44zm-250.88 128c-35.84 0-61.44-30.72-61.44-66.56s30.72-66.56 66.56-66.56 61.44 30.72 61.44 66.56-30.72 66.56-66.56 66.56z"/></svg>