<?xml version="1.0" standalone="no"?><!DOCTYPE svg PUBLIC "-//W3C//DTD SVG 1.1//EN" "http://www.w3.org/Graphics/SVG/1.1/DTD/svg11.dtd"><svg t="1587866848744" class="icon" viewBox="0 0 1024 1024" version="1.1" xmlns="http://www.w3.org/2000/svg" p-id="4700" xmlns:xlink="http://www.w3.org/1999/xlink" width="32" height="32"><defs><style type="text/css"></style></defs><path d="M774.010901 388.849192c-13.862729 0-25.249057 11.288091-25.249057 25.345248l0 404.529313c0 13.9405-11.384281 25.248034-25.286919 25.248034L268.317537 843.971787c-13.900591 0-25.284873-11.307533-25.284873-25.248034L243.032664 313.0089c0-13.978363 11.384281-25.249057 25.284873-25.249057l354.050642 0c13.902638 0 25.286919-11.30651 25.286919-25.284873 0-13.998829-11.384281-25.286919-25.286919-25.286919L268.317537 237.188051c-41.859363 0-75.898621 33.978882-75.898621 75.820849l0 505.714853c0 41.860387 34.039257 75.821873 75.898621 75.821873l455.158411 0c41.783639 0 75.822896-33.961486 75.822896-75.821873L799.298843 414.19444C799.29782 400.138306 787.989263 388.849192 774.010901 388.849192z" p-id="4701"></path><path d="M470.611869 439.500802 318.890352 439.500802c-13.900591 0-25.286919 11.286044-25.286919 25.209148 0 14.016225 11.386328 25.305339 25.286919 25.305339L470.611869 490.01529c13.862729 0 25.245987-11.288091 25.245987-25.305339C495.857856 450.78787 484.474598 439.500802 470.611869 439.500802z" p-id="4702"></path><path d="M293.603433 616.431467c0 14.056134 11.386328 25.286919 25.286919 25.286919l303.476803 0c13.902638 0 25.286919-11.230786 25.286919-25.286919 0-13.978363-11.384281-25.286919-25.286919-25.286919L318.890352 591.144548C304.989761 591.144548 293.603433 602.453105 293.603433 616.431467z" p-id="4703"></path><path d="M844.023464 195.540512c-4.919033-4.956895-11.346419-7.397481-17.851577-7.397481-6.467295 0-12.973476 2.440585-17.889439 7.397481L557.041334 446.87577c-9.91379 9.874905-9.91379 25.830295 0 35.744086 4.956895 4.898567 11.384281 7.395434 17.928325 7.395434 6.389524 0 12.895705-2.438539 17.851577-7.395434l251.201206-251.317862C853.936231 221.427088 853.936231 205.473745 844.023464 195.540512z" p-id="4704"></path></svg>